<svg width="90" height="92" viewBox="0 0 90 92" fill="none" xmlns="http://www.w3.org/2000/svg">
<g clip-path="url(#clip0_2171_3467)">
<mask id="mask0_2171_3467" style="mask-type:luminance" maskUnits="userSpaceOnUse" x="0" y="0" width="90" height="92">
<path d="M0 0.444897H90V91.0214H0V0.444897Z" fill="white"/>
</mask>
<g mask="url(#mask0_2171_3467)">
<mask id="mask1_2171_3467" style="mask-type:luminance" maskUnits="userSpaceOnUse" x="0" y="0" width="90" height="92">
<path d="M45 0.444897C20.1475 0.444897 0 20.7215 0 45.7331C0 70.7448 20.1475 91.0214 45 91.0214C69.8525 91.0214 90 70.7448 90 45.7331C90 20.7215 69.8525 0.444897 45 0.444897Z" fill="white"/>
</mask>
<g mask="url(#mask1_2171_3467)">
<path d="M0 0.444897H90V91.0214H0V0.444897Z" fill="#307BC4"/>
</g>
</g>
<mask id="mask2_2171_3467" style="mask-type:luminance" maskUnits="userSpaceOnUse" x="10" y="0" width="69" height="92">
<path d="M10.3526 0H78.951V91.4595H10.3526V0Z" fill="white"/>
</mask>
<g mask="url(#mask2_2171_3467)">
<path d="M59.5652 84.07C59.5652 86.879 57.295 89.1638 54.5038 89.1638C51.7126 89.1638 49.4411 86.879 49.4411 84.07C49.4411 81.2609 51.7126 78.9748 54.5038 78.9748C55.3267 78.9748 56.1021 79.1747 56.789 79.5265L55.3349 80.9899C55.071 80.9173 54.7922 80.879 54.5038 80.879C52.7518 80.879 51.3331 82.3068 51.3331 84.07C51.3331 85.8318 52.7518 87.2623 54.5038 87.2623C56.2544 87.2623 57.6745 85.8318 57.6745 84.07C57.6745 83.7798 57.635 83.5005 57.5629 83.2322L59.0184 81.7688C59.3666 82.4615 59.5652 83.2432 59.5652 84.07ZM30.379 50.6517C31.3421 51.4416 32.4221 52.0891 33.5878 52.5614C35.0949 53.1719 36.6727 53.4744 38.2438 53.4744C40.3712 53.4744 42.4863 52.92 44.396 51.8249L59.0143 43.4484C59.6413 43.0884 60.0004 42.4395 60.0236 41.7633L74.0936 33.7003C76.5896 32.2697 78.2409 29.807 78.6231 26.9432C79.0067 24.0781 78.0627 21.2636 76.0319 19.2211L74.027 17.2033L73.0068 14.5366C72.4614 13.1102 70.6373 12.7215 69.5641 13.8029L69.3628 14.0041L69.1615 14.2067C68.0883 15.2868 68.4746 17.1226 69.8919 17.6715L72.5403 18.6982L74.5452 20.716C76.1095 22.2889 76.8358 24.4559 76.5406 26.6599C76.2455 28.8652 74.975 30.7612 73.0544 31.8618L58.9844 39.9248C58.394 39.6004 57.6568 39.5798 57.0297 39.9398L42.4115 48.3163C40.159 49.6072 37.4889 49.7893 35.084 48.816C32.9634 47.9563 31.2577 46.241 30.4049 44.1069C29.4378 41.6866 29.6173 38.998 30.9 36.7325L39.2367 21.9987C39.5945 21.3662 39.5741 20.6243 39.2517 20.0302L47.2511 5.89324C48.3447 3.96031 50.2286 2.68036 52.4186 2.3833C54.6085 2.08762 56.7618 2.81862 58.326 4.39152L60.331 6.40932L61.3511 9.07599C61.8966 10.5024 63.7206 10.8912 64.7938 9.80974L64.9951 9.60851L65.1951 9.40591C66.2683 8.32445 65.882 6.49009 64.466 5.94115L61.8163 4.91445L59.8114 2.89665C57.7819 0.852843 54.984 -0.0985622 52.1384 0.288845C49.2928 0.673513 46.8458 2.33539 45.4244 4.84601L37.4249 18.9843C36.753 19.0076 36.1083 19.369 35.7519 20L27.4151 34.7352C25.5231 38.0781 25.2565 42.0425 26.6833 45.6127C27.0751 46.5915 27.5879 47.5114 28.2027 48.3519L13.8837 63.4909C11.5659 65.9413 10.3376 69.1528 10.426 72.534C10.5144 75.9153 11.9087 79.0583 14.3516 81.3814C16.7401 83.6552 19.8646 84.8831 23.1508 84.8352C26.4385 84.7887 29.5275 83.4745 31.8521 81.135L61.3144 51.484C62.8732 49.9152 64.9448 49.0514 67.1484 49.0514C69.3533 49.0514 71.4249 49.9152 72.9837 51.4854C76.2006 54.7215 76.2006 59.9905 72.9837 63.2281L58.5355 77.7702C57.3725 77.0132 55.9878 76.5724 54.5038 76.5724C50.396 76.5724 47.0539 79.9358 47.0539 84.07C47.0539 88.2042 50.396 91.5662 54.5038 91.5662C58.6117 91.5662 61.9537 88.2042 61.9537 84.07C61.9537 82.5751 61.5157 81.1829 60.7635 80.0125L75.2117 65.4717C79.6583 60.9967 79.6583 53.7167 75.2117 49.2417C70.7665 44.7667 63.5316 44.7667 59.0864 49.2417L29.6241 78.8927C27.7769 80.7503 25.3789 81.6839 22.9767 81.6839C20.6617 81.6826 18.3438 80.816 16.5157 79.0775C14.6876 77.3362 13.6429 74.983 13.5776 72.4505C13.511 69.918 14.4305 67.5128 16.1661 65.6771L30.379 50.6517Z" fill="#C2E0EF"/>
</g>
</g>
<defs>
<clipPath id="clip0_2171_3467">
<rect width="90" height="91.4595" fill="white"/>
</clipPath>
</defs>
</svg>
