<svg width="70" height="72" viewBox="0 0 70 72" fill="none" xmlns="http://www.w3.org/2000/svg">
<g clip-path="url(#clip0_2242_525)">
<mask id="mask0_2242_525" style="mask-type:luminance" maskUnits="userSpaceOnUse" x="0" y="0" width="70" height="71">
<path d="M0 0.346039H70V70.7944H0V0.346039Z" fill="white"/>
</mask>
<g mask="url(#mask0_2242_525)">
<mask id="mask1_2242_525" style="mask-type:luminance" maskUnits="userSpaceOnUse" x="0" y="0" width="70" height="71">
<path d="M35 0.346039C15.6703 0.346039 0 16.1167 0 35.5702C0 55.0238 15.6703 70.7944 35 70.7944C54.3297 70.7944 70 55.0238 70 35.5702C70 16.1167 54.3297 0.346039 35 0.346039Z" fill="white"/>
</mask>
<g mask="url(#mask1_2242_525)">
<path d="M0 0.346039H70V70.7944H0V0.346039Z" fill="#86BBF1"/>
</g>
</g>
<mask id="mask2_2242_525" style="mask-type:luminance" maskUnits="userSpaceOnUse" x="8" y="0" width="54" height="72">
<path d="M8.05225 0H61.4065V71.1351H8.05225V0Z" fill="white"/>
</mask>
<g mask="url(#mask2_2242_525)">
<path d="M46.3288 65.3878C46.3288 67.5726 44.563 69.3496 42.3921 69.3496C40.2212 69.3496 38.4545 67.5726 38.4545 65.3878C38.4545 63.2029 40.2212 61.4249 42.3921 61.4249C43.0322 61.4249 43.6352 61.5803 44.1695 61.8539L43.0385 62.9921C42.8333 62.9357 42.6164 62.9059 42.3921 62.9059C41.0295 62.9059 39.9261 64.0164 39.9261 65.3878C39.9261 66.7581 41.0295 67.8707 42.3921 67.8707C43.7537 67.8707 44.8582 66.7581 44.8582 65.3878C44.8582 65.162 44.8275 64.9448 44.7715 64.7361L45.9035 63.598C46.1743 64.1367 46.3288 64.7447 46.3288 65.3878ZM23.6284 39.3958C24.3775 40.0101 25.2175 40.5137 26.1241 40.8811C27.2963 41.3559 28.5235 41.5912 29.7455 41.5912C31.4001 41.5912 33.0452 41.16 34.5306 40.3082L45.9003 33.7932C46.388 33.5132 46.6673 33.0085 46.6853 32.4825L57.6287 26.2113C59.57 25.0987 60.8543 23.1832 61.1516 20.9558C61.45 18.7274 60.7158 16.5383 59.1362 14.9498L57.5768 13.3804L56.7834 11.3063C56.3591 10.1968 54.9404 9.89445 54.1057 10.7356L53.9491 10.8921L53.7926 11.0497C52.9578 11.8897 53.2583 13.3175 54.3607 13.7445L56.4205 14.543L57.9799 16.1124C59.1965 17.3358 59.7615 19.0212 59.5319 20.7355C59.3023 22.4507 58.3142 23.9254 56.8204 24.7814L45.877 31.0526C45.4179 30.8003 44.8445 30.7843 44.3567 31.0643L32.987 37.5793C31.2351 38.5834 29.1583 38.725 27.2879 37.968C25.6385 37.2993 24.3119 35.9652 23.6485 34.3053C22.8963 32.4229 23.036 30.3318 24.0336 28.5697L30.5178 17.1101C30.796 16.6182 30.7801 16.0411 30.5294 15.579L36.7512 4.58362C37.6018 3.08023 39.067 2.08472 40.7703 1.85367C42.4736 1.62369 44.1483 2.19225 45.365 3.41562L46.9244 4.98502L47.7178 7.0591C48.1421 8.16854 49.5608 8.47092 50.3955 7.62979L50.5521 7.47327L50.7076 7.31569C51.5423 6.47456 51.2419 5.04784 50.1405 4.62088L48.0797 3.82234L46.5202 2.25294C44.9418 0.663312 42.7656 -0.0766701 40.5524 0.224646C38.3392 0.523833 36.4359 1.81641 35.3304 3.76911L29.1086 14.7656C28.586 14.7837 28.0845 15.0647 27.8073 15.5556L21.3232 27.0162C19.8516 29.6163 19.6442 32.6997 20.754 35.4765C21.0587 36.2378 21.4575 36.9533 21.9357 37.607L10.7987 49.3818C8.99598 51.2876 8.04066 53.7855 8.10943 56.4153C8.17819 59.0452 9.26259 61.4898 11.1627 63.2966C13.0204 65.0651 15.4505 66.0202 18.0065 65.9829C20.5636 65.9467 22.9662 64.9246 24.7742 63.105L47.6893 40.0431C48.9017 38.8229 50.5129 38.1511 52.2268 38.1511C53.9417 38.1511 55.553 38.8229 56.7654 40.0442C59.2674 42.5612 59.2674 46.6593 56.7654 49.1774L45.5279 60.4879C44.6233 59.8991 43.5464 59.5563 42.3921 59.5563C39.1971 59.5563 36.5978 62.1723 36.5978 65.3878C36.5978 68.6032 39.1971 71.2182 42.3921 71.2182C45.5871 71.2182 48.1865 68.6032 48.1865 65.3878C48.1865 64.2251 47.8459 63.1423 47.2608 62.2319L58.4983 50.9224C61.9567 47.4419 61.9567 41.7797 58.4983 38.2991C55.0409 34.8185 49.4137 34.8185 45.9564 38.2991L23.0413 61.361C21.6046 62.8058 19.7394 63.5319 17.8711 63.5319C16.0705 63.5309 14.2677 62.8569 12.8458 61.5047C11.424 60.1504 10.6115 58.3201 10.5607 56.3504C10.5088 54.3807 11.224 52.5099 12.574 51.0822L23.6284 39.3958Z" fill="#274760"/>
</g>
</g>
<defs>
<clipPath id="clip0_2242_525">
<rect width="70" height="71.1351" fill="white"/>
</clipPath>
</defs>
</svg>
