<svg width="34" height="34" viewBox="0 0 34 34" fill="none" xmlns="http://www.w3.org/2000/svg">
<g clip-path="url(#clip0_1_54)">
<g clip-path="url(#clip1_1_54)">
<path d="M16.939 0.500127C14.408 0.490124 11.9098 1.07127 9.64318 2.19727C9.49289 2.25791 9.35672 2.34889 9.24319 2.46452C9.12965 2.58016 9.04118 2.71797 8.9833 2.86933C8.92543 3.0207 8.8994 3.18238 8.90683 3.34426C8.91426 3.50614 8.955 3.66475 9.0265 3.81018C9.098 3.9556 9.19873 4.08473 9.32238 4.18947C9.44604 4.29422 9.58997 4.37234 9.74518 4.41896C9.9004 4.46558 10.0635 4.47969 10.2245 4.4604C10.3854 4.44112 10.5405 4.38887 10.6803 4.3069C12.8375 3.24255 15.2305 2.74592 17.6331 2.86396C20.0356 2.98199 22.3684 3.7108 24.4108 4.98148C26.4532 6.25215 28.1378 8.0227 29.3053 10.1257C30.4727 12.2288 31.0845 14.5948 31.0827 17.0001C31.0827 22.7515 27.9947 29.1629 22.8322 29.9643C22.284 30.0953 21.7136 30.1041 21.1616 29.9901C20.6096 29.876 20.0895 29.6419 19.6381 29.3044C18.6124 28.171 18.0672 26.6835 18.1176 25.1558C20.0796 24.8726 21.874 23.8926 23.1726 22.395C24.4712 20.8973 25.1872 18.9823 25.1895 17.0001V9.92868C25.1895 9.6161 25.0653 9.31633 24.8443 9.0953C24.6232 8.87428 24.3234 8.75011 24.0108 8.75011H20.4749C20.1623 8.75011 19.8625 8.87428 19.6415 9.0953C19.4204 9.31633 19.2963 9.6161 19.2963 9.92868C19.2963 10.2413 19.4204 10.541 19.6415 10.7621C19.8625 10.9831 20.1623 11.1072 20.4749 11.1072H22.8322V17.0001C22.8322 18.563 22.2113 20.0618 21.1061 21.167C20.0009 22.2721 18.5019 22.8929 16.939 22.8929C15.376 22.8929 13.877 22.2721 12.7718 21.167C11.6666 20.0618 11.0457 18.563 11.0457 17.0001V11.1072H13.403C13.7156 11.1072 14.0154 10.9831 14.2365 10.7621C14.4575 10.541 14.5817 10.2413 14.5817 9.92868C14.5817 9.6161 14.4575 9.31633 14.2365 9.0953C14.0154 8.87428 13.7156 8.75011 13.403 8.75011H9.86712C9.55453 8.75011 9.25473 8.87428 9.03369 9.0953C8.81265 9.31633 8.68848 9.6161 8.68848 9.92868V17.0001C8.6908 18.9823 9.40675 20.8973 10.7053 22.395C12.0039 23.8926 13.7983 24.8726 15.7603 25.1558C15.9135 27.8665 16.6797 29.8701 18.0469 31.0486C19.1135 31.9398 20.4777 32.3945 21.8657 32.3215C22.2992 32.3219 22.7323 32.2943 23.1622 32.239C29.8334 31.2726 33.44 23.659 33.44 17.0001C33.44 12.624 31.7015 8.4272 28.607 5.33285C25.5124 2.23851 21.3153 0.500127 16.939 0.500127Z" fill="white"/>
<path d="M6.33106 24.0715C5.82545 24.0791 5.32423 24.1666 4.84596 24.3308C3.23027 21.6672 2.53928 18.5448 2.88028 15.4482C3.22128 12.3517 4.5752 9.4544 6.7318 7.20619C6.85236 7.09777 6.94925 6.96565 7.01642 6.81808C7.08359 6.6705 7.11958 6.51066 7.12215 6.34854C7.12472 6.18643 7.09381 6.02553 7.03135 5.8759C6.96889 5.72628 6.87623 5.59115 6.75916 5.47896C6.64209 5.36678 6.50314 5.27996 6.35098 5.22392C6.19882 5.16789 6.03674 5.14385 5.87487 5.15331C5.713 5.16278 5.55482 5.20553 5.41023 5.27891C5.26564 5.35229 5.13774 5.45471 5.03454 5.57977C2.51009 8.21053 0.928131 11.6033 0.535776 15.2281C0.143421 18.8528 0.96277 22.5055 2.86583 25.6154C2.13813 26.4163 1.70808 27.443 1.64786 28.5234C1.58764 29.6037 1.90091 30.6719 2.5351 31.5486C3.16929 32.4254 4.08579 33.0573 5.13076 33.3383C6.17574 33.6193 7.28557 33.5323 8.27399 33.0919C9.26241 32.6515 10.0693 31.8845 10.559 30.9197C11.0488 29.9548 11.1918 28.8509 10.964 27.7931C10.7362 26.7354 10.1514 25.7881 9.3078 25.1105C8.4642 24.4328 7.41314 24.066 6.33106 24.0715ZM6.33106 31.1429C5.86483 31.1429 5.40907 31.0047 5.02141 30.7457C4.63376 30.4867 4.33162 30.1185 4.1532 29.6878C3.97478 29.2571 3.9281 28.7832 4.01906 28.3259C4.11001 27.8687 4.33452 27.4487 4.6642 27.119C4.99387 26.7894 5.4139 26.5649 5.87117 26.4739C6.32844 26.383 6.80241 26.4297 7.23315 26.6081C7.66389 26.7865 8.03205 27.0886 8.29107 27.4762C8.5501 27.8639 8.68835 28.3196 8.68835 28.7858C8.68835 29.4109 8.43999 30.0105 7.99791 30.4525C7.55584 30.8946 6.95625 31.1429 6.33106 31.1429Z" fill="white"/>
</g>
</g>
<defs>
<clipPath id="clip0_1_54">
<rect width="33" height="33" fill="white" transform="translate(0.439941 0.5)"/>
</clipPath>
<clipPath id="clip1_1_54">
<rect width="33" height="33" fill="white" transform="translate(0.439941 0.5)"/>
</clipPath>
</defs>
</svg>
