<svg width="20" height="21" viewBox="0 0 20 21" fill="none" xmlns="http://www.w3.org/2000/svg">
<path d="M5.8335 14.3018V10.9685" stroke="#274760" stroke-width="1.5" stroke-linecap="round"/>
<path d="M10 14.3018V5.96848" stroke="#274760" stroke-width="1.5" stroke-linecap="round"/>
<path d="M14.1665 14.3018V9.30179" stroke="#274760" stroke-width="1.5" stroke-linecap="round"/>
<path d="M2.0835 10.1351C2.0835 6.40319 2.0835 4.53722 3.24286 3.37784C4.40224 2.21848 6.26821 2.21848 10.0002 2.21848C13.7321 2.21848 15.5981 2.21848 16.7575 3.37784C17.9168 4.53722 17.9168 6.40319 17.9168 10.1351C17.9168 13.8671 17.9168 15.7331 16.7575 16.8925C15.5981 18.0518 13.7321 18.0518 10.0002 18.0518C6.26821 18.0518 4.40224 18.0518 3.24286 16.8925C2.0835 15.7331 2.0835 13.8671 2.0835 10.1351Z" stroke="#274760" stroke-width="1.5" stroke-linejoin="round"/>
</svg>
