<svg width="20" height="20" viewBox="0 0 20 20" fill="none" xmlns="http://www.w3.org/2000/svg">
<path d="M5.83331 14.1667V10.8333" stroke="#274760" stroke-width="1.5" stroke-linecap="round"/>
<path d="M10 14.1667V5.83334" stroke="#274760" stroke-width="1.5" stroke-linecap="round"/>
<path d="M14.1667 14.1667V9.16666" stroke="#274760" stroke-width="1.5" stroke-linecap="round"/>
<path d="M2.08331 10C2.08331 6.26805 2.08331 4.40208 3.24268 3.2427C4.40205 2.08334 6.26803 2.08334 9.99998 2.08334C13.7319 2.08334 15.5979 2.08334 16.7573 3.2427C17.9166 4.40208 17.9166 6.26805 17.9166 10C17.9166 13.7319 17.9166 15.5979 16.7573 16.7573C15.5979 17.9167 13.7319 17.9167 9.99998 17.9167C6.26803 17.9167 4.40205 17.9167 3.24268 16.7573C2.08331 15.5979 2.08331 13.7319 2.08331 10Z" stroke="#274760" stroke-width="1.5" stroke-linejoin="round"/>
</svg>
