<svg width="26" height="28" viewBox="0 0 26 28" fill="none" xmlns="http://www.w3.org/2000/svg">
<path d="M18 1.66666V3.33332M8 1.66666V3.33332" stroke="#274760" stroke-width="1.5" stroke-linecap="round" stroke-linejoin="round"/>
<path d="M12.9966 10.8333H13.0041M12.9966 14.1667H13.0041M16.3262 10.8333H16.3337M9.66699 10.8333H9.67447M9.66699 14.1667H9.67447" stroke="#274760" stroke-width="2" stroke-linecap="round" stroke-linejoin="round"/>
<path d="M5.91699 6.66666H20.0837" stroke="#274760" stroke-width="1.5" stroke-linecap="round" stroke-linejoin="round"/>
<g filter="url(#filter0_d_4002_1223)">
<path d="M5.08301 10.2027C5.08301 6.57162 5.08301 4.75607 6.12644 3.62803C7.16987 2.5 8.84925 2.5 12.208 2.5H13.7913C17.1501 2.5 18.8295 2.5 19.8729 3.62803C20.9163 4.75607 20.9163 6.57162 20.9163 10.2027V10.6307C20.9163 14.2617 20.9163 16.0773 19.8729 17.2053C18.8295 18.3333 17.1501 18.3333 13.7913 18.3333H12.208C8.84925 18.3333 7.16987 18.3333 6.12644 17.2053C5.08301 16.0773 5.08301 14.2617 5.08301 10.6307V10.2027Z" stroke="#274760" stroke-width="1.5" stroke-linecap="round" stroke-linejoin="round" shape-rendering="crispEdges"/>
</g>
<path d="M5.5 6.66666H20.5" stroke="#274760" stroke-width="1.5" stroke-linecap="round" stroke-linejoin="round"/>
<defs>
<filter id="filter0_d_4002_1223" x="0.333008" y="1.75" width="25.333" height="25.3333" filterUnits="userSpaceOnUse" color-interpolation-filters="sRGB">
<feFlood flood-opacity="0" result="BackgroundImageFix"/>
<feColorMatrix in="SourceAlpha" type="matrix" values="0 0 0 0 0 0 0 0 0 0 0 0 0 0 0 0 0 0 127 0" result="hardAlpha"/>
<feOffset dy="4"/>
<feGaussianBlur stdDeviation="2"/>
<feComposite in2="hardAlpha" operator="out"/>
<feColorMatrix type="matrix" values="0 0 0 0 0 0 0 0 0 0 0 0 0 0 0 0 0 0 0.25 0"/>
<feBlend mode="normal" in2="BackgroundImageFix" result="effect1_dropShadow_4002_1223"/>
<feBlend mode="normal" in="SourceGraphic" in2="effect1_dropShadow_4002_1223" result="shape"/>
</filter>
</defs>
</svg>
