<svg width="26" height="28" viewBox="0 0 26 28" fill="none" xmlns="http://www.w3.org/2000/svg">
<path d="M18 1.66666V3.33332M8 1.66666V3.33332" stroke="#274760" stroke-width="1.5" stroke-linecap="round" stroke-linejoin="round"/>
<path d="M12.9966 10.8333H13.0041M12.9966 14.1667H13.0041M16.3262 10.8333H16.3337M9.66699 10.8333H9.67447M9.66699 14.1667H9.67447" stroke="#274760" stroke-width="2" stroke-linecap="round" stroke-linejoin="round"/>
<path d="M5.91699 6.66666H20.0837" stroke="#274760" stroke-width="1.5" stroke-linecap="round" stroke-linejoin="round"/>
<g filter="url(#filter0_d_4002_1223)">
<path d="M5.08301 10.2027C5.08301 6.57162 5.08301 4.75607 6.12644 3.62803C7.16987 2.5 8.84925 2.5 12.208 2.5H13.7913C17.1501 2.5 18.8295 2.5 19.8729 3.62803C20.9163 4.75607 20.9163 6.57162 20.9163 10.2027V10.6307C20.9163 14.2617 20.9163 16.0773 19.8729 17.2053C18.8295 18.3333 17.1501 18.3333 13.7913 18.3333H12.208C8.84925 18.3333 7.16987 18.3333 6.12644 17.2053C5.08301 16.0773 5.08301 14.2617 5.08301 10.6307V10.2027Z" stroke="#274760" stroke-width="1.5" stroke-linecap="round" stroke-linejoin="round" shape-rendering="crispEdges"/>
</g>
<path d="M5.5 6.66666H20.5" stroke="#274760" stroke-width="1.5" stroke-linecap="round" stroke-linejoin="round"/>
<defs>
<filter id="filter0_d_4002_1223" x="0.333008" y="1.75" width="25.333" height="25.3333" filterUnits="userSpaceOnUse" color-interpolation-filters="sRGB">
<feFlood flood-opacity="0" result="BackgroundImageFix"/>
<feColorMatrix in="SourceAlpha" type="matrix" values="0 0 0 0 0 0 0 0 0 0 0 0 0 0 0 0 0 0 127 0" result="hardAlpha"/>
<feOffset dy="4"/>
<feGaussianBlur stdDeviation="2"/>
<feComposite in2="hardAlpha" operator="out"/>
<feColorMatrix type="matrix" values="0 0 0 0 0 0 0 0 0 0 0 0 0 0 0 0 0 0 0.25 0"/>
<feBlend mode="normal" in2="BackgroundImageFix" result="effect1_dropShadow_4002_1223"/>
<feBlend mode="normal" in="SourceGraphic" in2="effect1_dropShadow_4002_1223" result="shape"/>
</filter>
</defs>
</svg>

<svg width="20" height="20" viewBox="0 0 20 20" fill="none" xmlns="http://www.w3.org/2000/svg">
<path d="M15 1.66666V3.33333M5 1.66666V3.33333" stroke="#274760" stroke-width="1.5" stroke-linecap="round" stroke-linejoin="round"/>
<path d="M9.99627 10.8333H10.0038M9.99627 14.1667H10.0038M13.3259 10.8333H13.3334M6.66669 10.8333H6.67416M6.66669 14.1667H6.67416" stroke="#274760" stroke-width="2" stroke-linecap="round" stroke-linejoin="round"/>
<path d="M2.91669 6.66666H17.0834" stroke="#274760" stroke-width="1.5" stroke-linecap="round" stroke-linejoin="round"/>
<path d="M2.08331 10.2027C2.08331 6.57162 2.08331 4.75607 3.12675 3.62803C4.17018 2.5 5.84955 2.5 9.20831 2.5H10.7916C14.1504 2.5 15.8298 2.5 16.8732 3.62803C17.9166 4.75607 17.9166 6.57162 17.9166 10.2027V10.6307C17.9166 14.2617 17.9166 16.0773 16.8732 17.2053C15.8298 18.3333 14.1504 18.3333 10.7916 18.3333H9.20831C5.84955 18.3333 4.17018 18.3333 3.12675 17.2053C2.08331 16.0773 2.08331 14.2617 2.08331 10.6307V10.2027Z" stroke="#274760" stroke-width="1.5" stroke-linecap="round" stroke-linejoin="round"/>
<path d="M2.5 6.66666H17.5" stroke="#274760" stroke-width="1.5" stroke-linecap="round" stroke-linejoin="round"/>
</svg>
