<svg width="20" height="20" viewBox="0 0 20 20" fill="none" xmlns="http://www.w3.org/2000/svg">
<path d="M7.63206 4.76019L7.29651 4.00521C7.07711 3.51157 6.96741 3.26473 6.80336 3.07584C6.59775 2.83912 6.32974 2.66495 6.02991 2.57321C5.79067 2.5 5.52056 2.5 4.98036 2.5C4.19011 2.5 3.79498 2.5 3.46329 2.65191C3.07257 2.83085 2.71971 3.2194 2.57912 3.6255C2.45977 3.97024 2.49396 4.32453 2.56233 5.03308C3.29011 12.5752 7.42503 16.7101 14.9671 17.4378C15.6756 17.5062 16.03 17.5404 16.3746 17.4211C16.7808 17.2805 17.1693 16.9276 17.3483 16.5369C17.5001 16.2052 17.5001 15.8101 17.5001 15.0198C17.5001 14.4796 17.5001 14.2095 17.427 13.9702C17.3352 13.6704 17.1611 13.4024 16.9243 13.1968C16.7355 13.0327 16.4886 12.9231 15.995 12.7037L15.24 12.3681C14.7054 12.1305 14.4381 12.0117 14.1665 11.9859C13.9065 11.9612 13.6444 11.9977 13.4011 12.0924C13.1468 12.1914 12.9221 12.3787 12.4726 12.7532C12.0253 13.126 11.8016 13.3124 11.5283 13.4122C11.286 13.5007 10.9656 13.5336 10.7105 13.4959C10.4226 13.4535 10.2021 13.3358 9.76123 13.1001C8.38956 12.3671 7.63312 11.6107 6.90007 10.2389C6.66446 9.79808 6.54666 9.57758 6.50424 9.28975C6.46663 9.0345 6.49941 8.71417 6.58793 8.47192C6.68778 8.19857 6.87419 7.97488 7.24701 7.5275C7.62153 7.07807 7.8088 6.85335 7.90781 6.59909C8.00256 6.35578 8.03903 6.09367 8.01431 5.83373C7.98846 5.5621 7.86966 5.2948 7.63206 4.76019Z" stroke="#274760" stroke-width="1.25" stroke-linecap="round"/>
</svg>
