<svg width="28" height="27" viewBox="0 0 28 27" fill="none" xmlns="http://www.w3.org/2000/svg">
<g clip-path="url(#clip0_1_102)">
<mask id="mask0_1_102" style="mask-type:luminance" maskUnits="userSpaceOnUse" x="0" y="0" width="27" height="27">
<path d="M0.908691 0.330017H26.9087V26.33H0.908691V0.330017Z" fill="black"/>
</mask>
<g mask="url(#mask0_1_102)">
<path d="M20.8568 5.71259C20.8568 8.75946 18.3522 10.4906 13.9089 14.3454C9.46552 10.4906 6.96094 8.75946 6.96094 5.71259C6.96094 4.212 7.93035 1.65009 10.7121 1.65009C12.4199 1.65009 13.3665 2.89677 13.9089 3.88903C14.4512 2.89677 15.3978 1.65009 17.1055 1.65009C19.8873 1.65009 20.8568 4.212 20.8568 5.71259Z" stroke="white" stroke-miterlimit="10" stroke-linecap="round" stroke-linejoin="round"/>
<path d="M21.3228 18.0235L23.9233 15.4225C24.199 15.1468 24.3696 14.7659 24.3696 14.3454C24.3696 13.6822 23.9461 13.118 23.354 12.9088" stroke="white" stroke-miterlimit="10" stroke-linecap="round" stroke-linejoin="round"/>
<path d="M4.46338 12.9089C4.62232 12.8525 4.79295 12.8221 4.97119 12.8221C5.39166 12.8221 5.77252 12.9927 6.04826 13.2684L7.18881 14.4085C7.89822 15.1179 9.5999 15.7801 10.5978 15.8801L10.6353 15.8842C11.9171 16.0127 12.8931 17.0918 12.8931 18.3801V25.0096H7.51025V21.9627L4.78482 20.6002C2.72057 19.5678 1.4165 17.4579 1.4165 15.1499V8.25177C1.4165 7.41033 2.0985 6.72833 2.93994 6.72833C3.78139 6.72833 4.46338 7.41033 4.46338 8.25177V12.9089Z" stroke="white" stroke-miterlimit="10" stroke-linecap="round" stroke-linejoin="round"/>
<path d="M6.49463 18.0235L3.89412 15.4225C3.61838 15.1468 3.44775 14.7659 3.44775 14.3454C3.44775 13.6822 3.87127 13.118 4.46338 12.9088" stroke="white" stroke-miterlimit="10" stroke-linecap="round" stroke-linejoin="round"/>
<path d="M24.7251 19.8299C24.7251 20.1103 24.4977 20.3377 24.2173 20.3377C23.9369 20.3377 23.7095 20.1103 23.7095 19.8299C23.7095 19.5495 23.9369 19.3221 24.2173 19.3221C24.4977 19.3221 24.7251 19.5495 24.7251 19.8299Z" fill="white"/>
<path d="M25.6612 18.0598C26.1379 17.1828 26.4009 16.1863 26.4009 15.1498V8.25165C26.4009 7.4102 25.7189 6.72821 24.8775 6.72821C24.036 6.72821 23.354 7.4102 23.354 8.25165V12.9088C23.1951 12.8524 23.0244 12.8219 22.8462 12.8219C22.4257 12.8219 22.0449 12.9926 21.7691 13.2684L20.6286 14.4084C19.9192 15.1178 18.2175 15.78 17.2197 15.88L17.1821 15.8841C15.9003 16.0126 14.9243 17.0917 14.9243 18.38V25.0094H20.3071V21.9626L22.25 20.9913" stroke="white" stroke-miterlimit="10" stroke-linecap="round" stroke-linejoin="round"/>
</g>
</g>
<defs>
<clipPath id="clip0_1_102">
<rect width="27" height="26" fill="white" transform="translate(0.159912 0.330017)"/>
</clipPath>
</defs>
</svg>
