<svg width="20" height="20" viewBox="0 0 20 20" fill="none" xmlns="http://www.w3.org/2000/svg">
<path d="M2.08301 9.99999C2.08301 6.26804 2.08301 4.40207 3.24237 3.24269C4.40175 2.08333 6.26772 2.08333 9.99967 2.08333C13.7316 2.08333 15.5976 2.08333 16.757 3.24269C17.9163 4.40207 17.9163 6.26804 17.9163 9.99999C17.9163 13.7319 17.9163 15.5979 16.757 16.7573C15.5976 17.9167 13.7316 17.9167 9.99967 17.9167C6.26772 17.9167 4.40175 17.9167 3.24237 16.7573C2.08301 15.5979 2.08301 13.7319 2.08301 9.99999Z" stroke="#274760" stroke-width="1.5"/>
<path d="M10.0021 5.86548V11.7408M10.0021 11.7408C10.2738 11.7444 10.5419 11.5576 10.7397 11.3297L12.0642 9.84409M10.0021 11.7408C9.73991 11.7373 9.47442 11.5515 9.2645 11.3296L7.9322 9.84409M6.65527 14.1988H13.3219" stroke="#274760" stroke-width="1.5" stroke-linecap="round"/>
</svg>
