<svg width="20" height="20" viewBox="0 0 20 20" fill="none" xmlns="http://www.w3.org/2000/svg">
<path d="M2.08331 10C2.08331 6.26805 2.08331 4.40208 3.24268 3.2427C4.40205 2.08334 6.26803 2.08334 9.99998 2.08334C13.7319 2.08334 15.5979 2.08334 16.7573 3.2427C17.9166 4.40208 17.9166 6.26805 17.9166 10C17.9166 13.7319 17.9166 15.5979 16.7573 16.7573C15.5979 17.9167 13.7319 17.9167 9.99998 17.9167C6.26803 17.9167 4.40205 17.9167 3.24268 16.7573C2.08331 15.5979 2.08331 13.7319 2.08331 10Z" stroke="#274760" stroke-width="1.5"/>
<path d="M10.0021 5.86548V11.7408M10.0021 11.7408C10.2738 11.7444 10.5419 11.5576 10.7397 11.3297L12.0642 9.84409M10.0021 11.7408C9.73991 11.7373 9.47442 11.5515 9.2645 11.3296L7.9322 9.84409M6.65527 14.1988H13.3219" stroke="#274760" stroke-width="1.5" stroke-linecap="round"/>
</svg>
