<svg width="20" height="20" viewBox="0 0 20 20" fill="none" xmlns="http://www.w3.org/2000/svg">
<path fill-rule="evenodd" clip-rule="evenodd" d="M5.15154 8.61109C4.33674 8.61109 4.16669 8.771 4.16669 9.537V10.9259C4.16669 11.692 4.33674 11.8518 5.15154 11.8518H7.12123V17.4074C7.12123 18.1734 7.29128 18.3333 8.10608 18.3333H10.0758C10.8906 18.3333 11.0606 18.1734 11.0606 17.4074V11.8518H13.2723C13.8903 11.8518 14.0495 11.7389 14.2193 11.1803L14.6414 9.79142C14.9321 8.8345 14.7529 8.61109 13.6944 8.61109H11.0606V6.29631C11.0606 5.78493 11.5015 5.37037 12.0454 5.37037H14.8485C15.6633 5.37037 15.8334 5.2105 15.8334 4.44445V2.5926C15.8334 1.82655 15.6633 1.66667 14.8485 1.66667H12.0454C9.32585 1.66667 7.12123 3.73943 7.12123 6.29631V8.61109H5.15154Z" stroke="#274760" stroke-width="1.5" stroke-linejoin="round"/>
</svg>
