<svg width="20" height="20" viewBox="0 0 20 20" fill="none" xmlns="http://www.w3.org/2000/svg">
<path d="M6.66669 14.1667H13.3334" stroke="#274760" stroke-width="1.5" stroke-linecap="round" stroke-linejoin="round"/>
<path d="M6.66669 10.8333H10" stroke="#274760" stroke-width="1.5" stroke-linecap="round" stroke-linejoin="round"/>
<path d="M10.8333 2.08333V2.5C10.8333 4.85703 10.8333 6.03553 11.5656 6.76777C12.2978 7.5 13.4763 7.5 15.8333 7.5H16.25M16.6666 8.88075V11.6667C16.6666 14.8093 16.6666 16.3808 15.6903 17.357C14.7141 18.3333 13.1426 18.3333 9.99998 18.3333C6.85728 18.3333 5.28594 18.3333 4.30962 17.357C3.33331 16.3808 3.33331 14.8093 3.33331 11.6667V7.87987C3.33331 5.17568 3.33331 3.82359 4.0717 2.90778C4.22088 2.72276 4.3894 2.55423 4.57442 2.40506C5.49024 1.66667 6.84233 1.66667 9.54648 1.66667C10.1345 1.66667 10.4284 1.66667 10.6976 1.76168C10.7536 1.78143 10.8085 1.80417 10.8621 1.82979C11.1196 1.95296 11.3275 2.16083 11.7432 2.57657L15.6903 6.52369C16.1721 7.00541 16.4129 7.24627 16.5398 7.55255C16.6666 7.85883 16.6666 8.19946 16.6666 8.88075Z" stroke="#274760" stroke-width="1.5" stroke-linecap="round" stroke-linejoin="round"/>
</svg>
