<svg width="20" height="20" viewBox="0 0 20 20" fill="none" xmlns="http://www.w3.org/2000/svg">
<path d="M6.66699 14.1667H13.3337" stroke="#274760" stroke-width="1.5" stroke-linecap="round" stroke-linejoin="round"/>
<path d="M6.66699 10.8333H10.0003" stroke="#274760" stroke-width="1.5" stroke-linecap="round" stroke-linejoin="round"/>
<path d="M10.833 2.08334V2.50001C10.833 4.85703 10.833 6.03554 11.5653 6.76777C12.2975 7.5 13.476 7.5 15.833 7.5H16.2497M16.6663 8.88076V11.6667C16.6663 14.8093 16.6663 16.3808 15.69 17.357C14.7138 18.3333 13.1423 18.3333 9.99967 18.3333C6.85697 18.3333 5.28563 18.3333 4.30932 17.357C3.33301 16.3808 3.33301 14.8093 3.33301 11.6667V7.87987C3.33301 5.17569 3.33301 3.8236 4.0714 2.90778C4.22057 2.72276 4.3891 2.55424 4.57412 2.40506C5.48993 1.66667 6.84202 1.66667 9.54617 1.66667C10.1342 1.66667 10.4281 1.66667 10.6973 1.76168C10.7533 1.78144 10.8082 1.80417 10.8618 1.8298C11.1193 1.95296 11.3272 2.16084 11.7429 2.57657L15.69 6.5237C16.1718 7.00541 16.4126 7.24627 16.5395 7.55255C16.6663 7.85884 16.6663 8.19946 16.6663 8.88076Z" stroke="#274760" stroke-width="1.5" stroke-linecap="round" stroke-linejoin="round"/>
</svg>
