<svg width="20" height="20" viewBox="0 0 20 20" fill="none" xmlns="http://www.w3.org/2000/svg">
<path d="M3.75002 7.91667H3.33335C2.54768 7.91667 2.15485 7.91667 1.91076 8.16075C1.66669 8.40484 1.66669 8.79767 1.66669 9.58334V16.6667C1.66669 17.4523 1.66669 17.8452 1.91076 18.0893C2.15485 18.3333 2.54768 18.3333 3.33335 18.3333H3.75002C4.5357 18.3333 4.92853 18.3333 5.17261 18.0893C5.41669 17.8452 5.41669 17.4523 5.41669 16.6667V9.58334C5.41669 8.79767 5.41669 8.40484 5.17261 8.16075C4.92853 7.91667 4.5357 7.91667 3.75002 7.91667Z" stroke="#274760" stroke-width="1.5"/>
<path d="M5.41669 3.54167C5.41669 4.57721 4.57722 5.41667 3.54169 5.41667C2.50615 5.41667 1.66669 4.57721 1.66669 3.54167C1.66669 2.50614 2.50615 1.66667 3.54169 1.66667C4.57722 1.66667 5.41669 2.50614 5.41669 3.54167Z" stroke="#274760" stroke-width="1.5"/>
<path d="M10.2717 7.91667H9.58335C8.79769 7.91667 8.40485 7.91667 8.16076 8.16075C7.91669 8.40484 7.91669 8.79767 7.91669 9.58334V16.6667C7.91669 17.4523 7.91669 17.8452 8.16076 18.0893C8.40485 18.3333 8.79769 18.3333 9.58335 18.3333H10C10.7857 18.3333 11.1785 18.3333 11.4226 18.0893C11.6667 17.8452 11.6667 17.4523 11.6667 16.6667L11.6668 13.7501C11.6668 12.3694 12.1068 11.2501 13.4066 11.2501C14.0564 11.2501 14.5834 11.8098 14.5834 12.5001V16.2501C14.5834 17.0358 14.5834 17.4286 14.8274 17.6727C15.0714 17.9168 15.4644 17.9168 16.25 17.9168H16.6656C17.4511 17.9168 17.8439 17.9168 18.0879 17.6728C18.332 17.4288 18.3321 17.036 18.3323 16.2505L18.3334 11.6668C18.3334 9.59584 16.3637 7.91687 14.414 7.91687C13.3041 7.91687 12.3139 8.46092 11.6668 9.31167C11.6667 8.78659 11.6667 8.52409 11.5527 8.32917C11.4804 8.20572 11.3776 8.10295 11.2542 8.03073C11.0593 7.91667 10.7968 7.91667 10.2717 7.91667Z" stroke="#274760" stroke-width="1.5" stroke-linejoin="round"/>
</svg>
