<svg width="20" height="20" viewBox="0 0 20 20" fill="none" xmlns="http://www.w3.org/2000/svg">
<path d="M17.9167 10C17.9167 6.26802 17.9167 4.40204 16.7573 3.24267C15.5979 2.08331 13.732 2.08331 10 2.08331C6.2681 2.08331 4.4021 2.08331 3.24269 3.24267C2.08335 4.40204 2.08335 6.26802 2.08335 10C2.08335 13.7319 2.08335 15.5979 3.24269 16.7572C4.4021 17.9167 6.2681 17.9167 10 17.9167C13.732 17.9167 15.5979 17.9167 16.7573 16.7572C17.9167 15.5979 17.9167 13.7319 17.9167 10Z" stroke="#274760" stroke-width="1.5"/>
<path d="M14.1362 10.0229H8.32319M8.32319 10.0229C8.32319 10.4982 10.1192 12.0957 10.1192 12.0957M8.32319 10.0229C8.32319 9.53508 10.1192 7.96922 10.1192 7.96922M5.80285 6.66257V13.3292" stroke="#274760" stroke-width="1.5" stroke-linecap="round"/>
</svg>
