<svg width="20" height="20" viewBox="0 0 20 20" fill="none" xmlns="http://www.w3.org/2000/svg">
<path d="M2.0835 10C2.0835 6.26803 2.0835 4.40205 3.24286 3.24268C4.40224 2.08331 6.26821 2.08331 10.0002 2.08331C13.7321 2.08331 15.5981 2.08331 16.7575 3.24268C17.9168 4.40205 17.9168 6.26803 17.9168 10C17.9168 13.7319 17.9168 15.5979 16.7575 16.7573C15.5981 17.9167 13.7321 17.9167 10.0002 17.9167C6.26821 17.9167 4.40224 17.9167 3.24286 16.7573C2.0835 15.5979 2.0835 13.7319 2.0835 10Z" stroke="#274760" stroke-width="1.5"/>
<path d="M5.86377 10.0229H11.6768M11.6768 10.0229C11.6768 10.4982 9.88075 12.0957 9.88075 12.0957M11.6768 10.0229C11.6768 9.53508 9.88075 7.96922 9.88075 7.96922M14.1971 6.66257V13.3292" stroke="#274760" stroke-width="1.5" stroke-linecap="round"/>
</svg>
