<svg width="30" height="31" viewBox="0 0 30 31" fill="none" xmlns="http://www.w3.org/2000/svg">
<path d="M3.1624 18.962C2.89659 20.7045 4.085 21.914 5.54006 22.5167C11.1185 24.8277 18.8815 24.8277 24.4599 22.5167C25.915 21.914 27.1034 20.7045 26.8376 18.962C26.6743 17.8911 25.8665 16.9994 25.268 16.1286C24.4841 14.9741 24.4063 13.7147 24.4061 12.375C24.4061 7.19733 20.1949 3 15 3C9.80516 3 5.59391 7.19733 5.59391 12.375C5.59379 13.7147 5.5159 14.9741 4.73201 16.1286C4.13355 16.9994 3.32576 17.8911 3.1624 18.962Z" stroke="#274760" stroke-width="1.5" stroke-linecap="round" stroke-linejoin="round"/>
<path d="M10 24.25C10.5731 26.4065 12.5944 28 15 28C17.4056 28 19.4269 26.4065 20 24.25" stroke="#274760" stroke-width="1.5" stroke-linecap="round" stroke-linejoin="round"/>
</svg>
