<svg width="20" height="20" viewBox="0 0 20 20" fill="none" xmlns="http://www.w3.org/2000/svg">
<path d="M10 18.3333C14.6024 18.3333 18.3334 14.6024 18.3334 10C18.3334 5.39763 14.6024 1.66667 10 1.66667C5.39765 1.66667 1.66669 5.39763 1.66669 10C1.66669 14.6024 5.39765 18.3333 10 18.3333Z" stroke="#274760" stroke-width="1.5"/>
<path d="M7.91669 9.33316V10.6668C7.91669 11.9329 7.91669 12.5659 8.29649 12.8218C8.67627 13.0777 9.19569 12.7946 10.2346 12.2284L11.4581 11.5615C12.7083 10.8802 13.3334 10.5395 13.3334 10C13.3334 9.4605 12.7083 9.11983 11.4581 8.4385L10.2346 7.77161C9.19569 7.20541 8.67627 6.92231 8.29649 7.17818C7.91669 7.43405 7.91669 8.06708 7.91669 9.33316Z" fill="#274760"/>
</svg>
