<svg width="90" height="17" viewBox="0 0 90 17" fill="none" xmlns="http://www.w3.org/2000/svg">
<g clip-path="url(#clip0_1_471)">
<g clip-path="url(#clip1_1_471)">
<path d="M9.9322 1.25244C9.76674 0.908691 9.41709 0.689941 9.0331 0.689941C8.64911 0.689941 8.30259 0.908691 8.13401 1.25244L6.12664 5.38682L1.64364 6.04932C1.26901 6.10557 0.956824 6.36807 0.841315 6.72744C0.725806 7.08682 0.819462 7.48369 1.08794 7.74932L4.34093 10.9712L3.57295 15.5243C3.51051 15.8993 3.66661 16.2806 3.97567 16.5024C4.28474 16.7243 4.6937 16.7524 5.03087 16.5743L9.03623 14.4337L13.0416 16.5743C13.3787 16.7524 13.7877 16.7274 14.0968 16.5024C14.4058 16.2774 14.5619 15.8993 14.4995 15.5243L13.7284 10.9712L16.9814 7.74932C17.2499 7.48369 17.3466 7.08682 17.228 6.72744C17.1094 6.36807 16.8003 6.10557 16.4257 6.04932L11.9396 5.38682L9.9322 1.25244Z" fill="#307BC4"/>
</g>
<g clip-path="url(#clip2_1_471)">
<path d="M29.9923 1.25244C29.8268 0.908691 29.4772 0.689941 29.0932 0.689941C28.7092 0.689941 28.3626 0.908691 28.1941 1.25244L26.1867 5.38682L21.7037 6.04932C21.3291 6.10557 21.0169 6.36807 20.9014 6.72744C20.7859 7.08682 20.8795 7.48369 21.148 7.74932L24.401 10.9712L23.633 15.5243C23.5706 15.8993 23.7267 16.2806 24.0357 16.5024C24.3448 16.7243 24.7538 16.7524 25.0909 16.5743L29.0963 14.4337L33.1016 16.5743C33.4388 16.7524 33.8478 16.7274 34.1568 16.5024C34.4659 16.2774 34.622 15.8993 34.5596 15.5243L33.7885 10.9712L37.0414 7.74932C37.3099 7.48369 37.4067 7.08682 37.2881 6.72744C37.1694 6.36807 36.8604 6.10557 36.4858 6.04932L31.9996 5.38682L29.9923 1.25244Z" fill="#307BC4"/>
</g>
<g clip-path="url(#clip3_1_471)">
<path d="M50.0621 1.25244C49.8966 0.908691 49.547 0.689941 49.163 0.689941C48.779 0.689941 48.4325 0.908691 48.2639 1.25244L46.2565 5.38682L41.7735 6.04932C41.3989 6.10557 41.0867 6.36807 40.9712 6.72744C40.8557 7.08682 40.9493 7.48369 41.2178 7.74932L44.4708 10.9712L43.7028 15.5243C43.6404 15.8993 43.7965 16.2806 44.1056 16.5024C44.4146 16.7243 44.8236 16.7524 45.1607 16.5743L49.1661 14.4337L53.1715 16.5743C53.5086 16.7524 53.9176 16.7274 54.2267 16.5024C54.5357 16.2774 54.6918 15.8993 54.6294 15.5243L53.8583 10.9712L57.1113 7.74932C57.3798 7.48369 57.4765 7.08682 57.3579 6.72744C57.2393 6.36807 56.9302 6.10557 56.5556 6.04932L52.0694 5.38682L50.0621 1.25244Z" fill="#307BC4"/>
</g>
<g clip-path="url(#clip4_1_471)">
<path d="M70.1221 1.25244C69.9567 0.908691 69.607 0.689941 69.223 0.689941C68.8391 0.689941 68.4925 0.908691 68.3239 1.25244L66.3166 5.38682L61.8336 6.04932C61.459 6.10557 61.1468 6.36807 61.0313 6.72744C60.9157 7.08682 61.0094 7.48369 61.2779 7.74932L64.5309 10.9712L63.7629 15.5243C63.7005 15.8993 63.8565 16.2806 64.1656 16.5024C64.4747 16.7243 64.8836 16.7524 65.2208 16.5743L69.2262 14.4337L73.2315 16.5743C73.5687 16.7524 73.9777 16.7274 74.2867 16.5024C74.5958 16.2774 74.7519 15.8993 74.6894 15.5243L73.9183 10.9712L77.1713 7.74932C77.4398 7.48369 77.5366 7.08682 77.418 6.72744C77.2993 6.36807 76.9903 6.10557 76.6156 6.04932L72.1295 5.38682L70.1221 1.25244Z" fill="#307BC4"/>
</g>
<g clip-path="url(#clip5_1_471)">
<path d="M90.1822 1.25244C90.0167 0.908691 89.6671 0.689941 89.2831 0.689941C88.8991 0.689941 88.5526 0.908691 88.384 1.25244L86.3766 5.38682L81.8936 6.04932C81.519 6.10557 81.2068 6.36807 81.0913 6.72744C80.9758 7.08682 81.0695 7.48369 81.3379 7.74932L84.5909 10.9712L83.823 15.5243C83.7605 15.8993 83.9166 16.2806 84.2257 16.5024C84.5347 16.7243 84.9437 16.7524 85.2809 16.5743L89.2862 14.4337L93.2916 16.5743C93.6287 16.7524 94.0377 16.7274 94.3468 16.5024C94.6558 16.2774 94.8119 15.8993 94.7495 15.5243L93.9784 10.9712L97.2314 7.74932C97.4999 7.48369 97.5966 7.08682 97.478 6.72744C97.3594 6.36807 97.0503 6.10557 96.6757 6.04932L92.1896 5.38682L90.1822 1.25244Z" fill="#307BC4"/>
</g>
</g>
<defs>
<clipPath id="clip0_1_471">
<rect width="89.09" height="16" fill="white" transform="translate(0 0.689941)"/>
</clipPath>
<clipPath id="clip1_1_471">
<rect width="18.06" height="16" fill="white" transform="translate(0 0.689941)"/>
</clipPath>
<clipPath id="clip2_1_471">
<rect width="18.06" height="16" fill="white" transform="translate(20.0601 0.689941)"/>
</clipPath>
<clipPath id="clip3_1_471">
<rect width="18.06" height="16" fill="white" transform="translate(40.1299 0.689941)"/>
</clipPath>
<clipPath id="clip4_1_471">
<rect width="18.06" height="16" fill="white" transform="translate(60.1899 0.689941)"/>
</clipPath>
<clipPath id="clip5_1_471">
<rect width="18.06" height="16" fill="white" transform="translate(80.25 0.689941)"/>
</clipPath>
</defs>
</svg>
