<svg width="99" height="17" viewBox="0 0 99 17" fill="none" xmlns="http://www.w3.org/2000/svg">
<g clip-path="url(#clip0_1_459)">
<path d="M9.02694 0.689941C9.31415 0.689941 9.57639 0.852441 9.70126 1.11182L11.8429 5.52744L16.6256 6.23369C16.9065 6.27432 17.1407 6.47119 17.2281 6.74307C17.3155 7.01494 17.2437 7.30869 17.0439 7.50869L13.5755 10.9524L14.3934 15.8149C14.4403 16.0962 14.3248 16.3806 14.0906 16.5493C13.8565 16.7181 13.5505 16.7368 13.3008 16.6024L9.02381 14.3149L4.7531 16.5993C4.50022 16.7337 4.19428 16.7149 3.96326 16.5462C3.73224 16.3774 3.61361 16.0931 3.66044 15.8118L4.47837 10.9493L1.00997 7.50869C0.807051 7.30869 0.738369 7.01182 0.825782 6.74307C0.913194 6.47432 1.14733 6.27744 1.4283 6.23369L6.21101 5.52744L8.35261 1.11182C8.48061 0.852441 8.73972 0.689941 9.02694 0.689941ZM9.02694 3.15869L7.38795 6.53994C7.27869 6.76182 7.06952 6.91807 6.8229 6.95557L3.12972 7.49932L5.81141 10.1587C5.98311 10.3306 6.06428 10.5743 6.0237 10.8149L5.38996 14.5556L8.67417 12.7993C8.89582 12.6806 9.16118 12.6806 9.37971 12.7993L12.6639 14.5556L12.0333 10.8181C11.9927 10.5774 12.0708 10.3337 12.2456 10.1618L14.9273 7.50244L11.2341 6.95557C10.9906 6.91807 10.7783 6.76494 10.669 6.53994L9.02694 3.15869Z" fill="#307BC4"/>
</g>
<g clip-path="url(#clip1_1_459)">
<path d="M29.087 0.689941C29.3742 0.689941 29.6364 0.852441 29.7613 1.11182L31.9029 5.52744L36.6856 6.23369C36.9666 6.27432 37.2007 6.47119 37.2881 6.74307C37.3756 7.01494 37.3038 7.30869 37.104 7.50869L33.6356 10.9524L34.4535 15.8149C34.5003 16.0962 34.3848 16.3806 34.1507 16.5493C33.9165 16.7181 33.6106 16.7368 33.3608 16.6024L29.0839 14.3149L24.8132 16.5993C24.5603 16.7337 24.2543 16.7149 24.0233 16.5462C23.7923 16.3774 23.6737 16.0931 23.7205 15.8118L24.5384 10.9493L21.07 7.50869C20.8671 7.30869 20.7984 7.01182 20.8858 6.74307C20.9733 6.47432 21.2074 6.27744 21.4884 6.23369L26.2711 5.52744L28.4127 1.11182C28.5407 0.852441 28.7998 0.689941 29.087 0.689941ZM29.087 3.15869L27.448 6.53994C27.3387 6.76182 27.1296 6.91807 26.883 6.95557L23.1898 7.49932L25.8715 10.1587C26.0432 10.3306 26.1243 10.5743 26.0838 10.8149L25.45 14.5556L28.7342 12.7993C28.9559 12.6806 29.2212 12.6806 29.4398 12.7993L32.724 14.5556L32.0934 10.8181C32.0528 10.5774 32.1308 10.3337 32.3056 10.1618L34.9873 7.50244L31.2942 6.95557C31.0507 6.91807 30.8384 6.76494 30.7291 6.53994L29.087 3.15869Z" fill="#307BC4"/>
</g>
<g clip-path="url(#clip2_1_459)">
<path d="M49.1471 0.689941C49.4343 0.689941 49.6965 0.852441 49.8214 1.11182L51.963 5.52744L56.7457 6.23369C57.0267 6.27432 57.2608 6.47119 57.3482 6.74307C57.4356 7.01494 57.3638 7.30869 57.164 7.50869L53.6956 10.9524L54.5135 15.8149C54.5604 16.0962 54.4449 16.3806 54.2107 16.5493C53.9766 16.7181 53.6706 16.7368 53.4209 16.6024L49.1439 14.3149L44.8732 16.5993C44.6203 16.7337 44.3144 16.7149 44.0834 16.5462C43.8524 16.3774 43.7337 16.0931 43.7806 15.8118L44.5985 10.9493L41.1301 7.50869C40.9272 7.30869 40.8585 7.01182 40.9459 6.74307C41.0333 6.47432 41.2675 6.27744 41.5484 6.23369L46.3311 5.52744L48.4727 1.11182C48.6007 0.852441 48.8598 0.689941 49.1471 0.689941ZM49.1471 3.15869L47.5081 6.53994C47.3988 6.76182 47.1896 6.91807 46.943 6.95557L43.2498 7.49932L45.9315 10.1587C46.1032 10.3306 46.1844 10.5743 46.1438 10.8149L45.5101 14.5556L48.7943 12.7993C49.0159 12.6806 49.2813 12.6806 49.4998 12.7993L52.784 14.5556L52.1534 10.8181C52.1128 10.5774 52.1909 10.3337 52.3657 10.1618L55.0474 7.50244L51.3542 6.95557C51.1107 6.91807 50.8984 6.76494 50.7892 6.53994L49.1471 3.15869Z" fill="#307BC4"/>
</g>
<g clip-path="url(#clip3_1_459)">
<path d="M69.2069 0.689941C69.4941 0.689941 69.7563 0.852441 69.8812 1.11182L72.0228 5.52744L76.8055 6.23369C77.0865 6.27432 77.3206 6.47119 77.408 6.74307C77.4954 7.01494 77.4236 7.30869 77.2238 7.50869L73.7554 10.9524L74.5734 15.8149C74.6202 16.0962 74.5047 16.3806 74.2705 16.5493C74.0364 16.7181 73.7305 16.7368 73.4807 16.6024L69.2037 14.3149L64.933 16.5993C64.6802 16.7337 64.3742 16.7149 64.1432 16.5462C63.9122 16.3774 63.7935 16.0931 63.8404 15.8118L64.6583 10.9493L61.1899 7.50869C60.987 7.30869 60.9183 7.01182 61.0057 6.74307C61.0931 6.47432 61.3273 6.27744 61.6082 6.23369L66.3909 5.52744L68.5325 1.11182C68.6605 0.852441 68.9197 0.689941 69.2069 0.689941ZM69.2069 3.15869L67.5679 6.53994C67.4586 6.76182 67.2495 6.91807 67.0028 6.95557L63.3097 7.49932L65.9913 10.1587C66.163 10.3306 66.2442 10.5743 66.2036 10.8149L65.5699 14.5556L68.8541 12.7993C69.0758 12.6806 69.3411 12.6806 69.5596 12.7993L72.8438 14.5556L72.2132 10.8181C72.1726 10.5774 72.2507 10.3337 72.4255 10.1618L75.1072 7.50244L71.414 6.95557C71.1705 6.91807 70.9582 6.76494 70.849 6.53994L69.2069 3.15869Z" fill="#307BC4"/>
</g>
<g clip-path="url(#clip4_1_459)">
<path d="M89.2669 0.689941C89.5541 0.689941 89.8164 0.852441 89.9413 1.11182L92.0829 5.52744L96.8656 6.23369C97.1465 6.27432 97.3807 6.47119 97.4681 6.74307C97.5555 7.01494 97.4837 7.30869 97.2839 7.50869L93.8155 10.9524L94.6334 15.8149C94.6803 16.0962 94.5647 16.3806 94.3306 16.5493C94.0965 16.7181 93.7905 16.7368 93.5408 16.6024L89.2638 14.3149L84.9931 16.5993C84.7402 16.7337 84.4343 16.7149 84.2033 16.5462C83.9722 16.3774 83.8536 16.0931 83.9004 15.8118L84.7184 10.9493L81.25 7.50869C81.047 7.30869 80.9784 7.01182 81.0658 6.74307C81.1532 6.47432 81.3873 6.27744 81.6683 6.23369L86.451 5.52744L88.5926 1.11182C88.7206 0.852441 88.9797 0.689941 89.2669 0.689941ZM89.2669 3.15869L87.6279 6.53994C87.5187 6.76182 87.3095 6.91807 87.0629 6.95557L83.3697 7.49932L86.0514 10.1587C86.2231 10.3306 86.3043 10.5743 86.2637 10.8149L85.6299 14.5556L88.9142 12.7993C89.1358 12.6806 89.4012 12.6806 89.6197 12.7993L92.9039 14.5556L92.2733 10.8181C92.2327 10.5774 92.3108 10.3337 92.4856 10.1618L95.1673 7.50244L91.4741 6.95557C91.2306 6.91807 91.0183 6.76494 90.909 6.53994L89.2669 3.15869Z" fill="#307BC4"/>
</g>
<g clip-path="url(#clip5_1_459)">
<g clip-path="url(#clip6_1_459)">
<path d="M9.9322 1.25244C9.76674 0.908691 9.41709 0.689941 9.0331 0.689941C8.64911 0.689941 8.30259 0.908691 8.13401 1.25244L6.12664 5.38682L1.64364 6.04932C1.26901 6.10557 0.956824 6.36807 0.841315 6.72744C0.725806 7.08682 0.819462 7.48369 1.08794 7.74932L4.34093 10.9712L3.57295 15.5243C3.51051 15.8993 3.66661 16.2806 3.97567 16.5024C4.28474 16.7243 4.6937 16.7524 5.03087 16.5743L9.03623 14.4337L13.0416 16.5743C13.3787 16.7524 13.7877 16.7274 14.0968 16.5024C14.4058 16.2774 14.5619 15.8993 14.4995 15.5243L13.7284 10.9712L16.9814 7.74932C17.2499 7.48369 17.3466 7.08682 17.228 6.72744C17.1094 6.36807 16.8003 6.10557 16.4257 6.04932L11.9396 5.38682L9.9322 1.25244Z" fill="#307BC4"/>
</g>
<g clip-path="url(#clip7_1_459)">
<path d="M29.9923 1.25244C29.8268 0.908691 29.4772 0.689941 29.0932 0.689941C28.7092 0.689941 28.3626 0.908691 28.1941 1.25244L26.1867 5.38682L21.7037 6.04932C21.3291 6.10557 21.0169 6.36807 20.9014 6.72744C20.7859 7.08682 20.8795 7.48369 21.148 7.74932L24.401 10.9712L23.633 15.5243C23.5706 15.8993 23.7267 16.2806 24.0357 16.5024C24.3448 16.7243 24.7538 16.7524 25.0909 16.5743L29.0963 14.4337L33.1016 16.5743C33.4388 16.7524 33.8478 16.7274 34.1568 16.5024C34.4659 16.2774 34.622 15.8993 34.5596 15.5243L33.7885 10.9712L37.0414 7.74932C37.3099 7.48369 37.4067 7.08682 37.2881 6.72744C37.1694 6.36807 36.8604 6.10557 36.4858 6.04932L31.9996 5.38682L29.9923 1.25244Z" fill="#307BC4"/>
</g>
<g clip-path="url(#clip8_1_459)">
<path d="M50.0621 1.25244C49.8966 0.908691 49.547 0.689941 49.163 0.689941C48.779 0.689941 48.4325 0.908691 48.2639 1.25244L46.2565 5.38682L41.7735 6.04932C41.3989 6.10557 41.0867 6.36807 40.9712 6.72744C40.8557 7.08682 40.9493 7.48369 41.2178 7.74932L44.4708 10.9712L43.7028 15.5243C43.6404 15.8993 43.7965 16.2806 44.1056 16.5024C44.4146 16.7243 44.8236 16.7524 45.1607 16.5743L49.1661 14.4337L53.1715 16.5743C53.5086 16.7524 53.9176 16.7274 54.2267 16.5024C54.5357 16.2774 54.6918 15.8993 54.6294 15.5243L53.8583 10.9712L57.1113 7.74932C57.3798 7.48369 57.4765 7.08682 57.3579 6.72744C57.2393 6.36807 56.9302 6.10557 56.5556 6.04932L52.0694 5.38682L50.0621 1.25244Z" fill="#307BC4"/>
</g>
<g clip-path="url(#clip9_1_459)">
<path d="M70.1221 1.25244C69.9567 0.908691 69.607 0.689941 69.223 0.689941C68.8391 0.689941 68.4925 0.908691 68.3239 1.25244L66.3166 5.38682L61.8336 6.04932C61.459 6.10557 61.1468 6.36807 61.0313 6.72744C60.9157 7.08682 61.0094 7.48369 61.2779 7.74932L64.5309 10.9712L63.7629 15.5243C63.7005 15.8993 63.8565 16.2806 64.1656 16.5024C64.4747 16.7243 64.8836 16.7524 65.2208 16.5743L69.2262 14.4337L73.2315 16.5743C73.5687 16.7524 73.9777 16.7274 74.2867 16.5024C74.5958 16.2774 74.7519 15.8993 74.6894 15.5243L73.9183 10.9712L77.1713 7.74932C77.4398 7.48369 77.5366 7.08682 77.418 6.72744C77.2993 6.36807 76.9903 6.10557 76.6156 6.04932L72.1295 5.38682L70.1221 1.25244Z" fill="#307BC4"/>
</g>
<g clip-path="url(#clip10_1_459)">
<path d="M90.1822 1.25244C90.0167 0.908691 89.6671 0.689941 89.2831 0.689941C88.8991 0.689941 88.5526 0.908691 88.384 1.25244L86.3766 5.38682L81.8936 6.04932C81.519 6.10557 81.2068 6.36807 81.0913 6.72744C80.9758 7.08682 81.0695 7.48369 81.3379 7.74932L84.5909 10.9712L83.823 15.5243C83.7605 15.8993 83.9166 16.2806 84.2257 16.5024C84.5347 16.7243 84.9437 16.7524 85.2809 16.5743L89.2862 14.4337L93.2916 16.5743C93.6287 16.7524 94.0377 16.7274 94.3468 16.5024C94.6558 16.2774 94.8119 15.8993 94.7495 15.5243L93.9784 10.9712L97.2314 7.74932C97.4999 7.48369 97.5966 7.08682 97.478 6.72744C97.3594 6.36807 97.0503 6.10557 96.6757 6.04932L92.1896 5.38682L90.1822 1.25244Z" fill="#307BC4"/>
</g>
</g>
<defs>
<clipPath id="clip0_1_459">
<rect width="18.06" height="16" fill="white" transform="translate(0 0.689941)"/>
</clipPath>
<clipPath id="clip1_1_459">
<rect width="18.06" height="16" fill="white" transform="translate(20.0601 0.689941)"/>
</clipPath>
<clipPath id="clip2_1_459">
<rect width="18.06" height="16" fill="white" transform="translate(40.1201 0.689941)"/>
</clipPath>
<clipPath id="clip3_1_459">
<rect width="18.06" height="16" fill="white" transform="translate(60.1799 0.689941)"/>
</clipPath>
<clipPath id="clip4_1_459">
<rect width="18.06" height="16" fill="white" transform="translate(80.24 0.689941)"/>
</clipPath>
<clipPath id="clip5_1_459">
<rect width="89.09" height="16" fill="white" transform="translate(0 0.689941)"/>
</clipPath>
<clipPath id="clip6_1_459">
<rect width="18.06" height="16" fill="white" transform="translate(0 0.689941)"/>
</clipPath>
<clipPath id="clip7_1_459">
<rect width="18.06" height="16" fill="white" transform="translate(20.0601 0.689941)"/>
</clipPath>
<clipPath id="clip8_1_459">
<rect width="18.06" height="16" fill="white" transform="translate(40.1299 0.689941)"/>
</clipPath>
<clipPath id="clip9_1_459">
<rect width="18.06" height="16" fill="white" transform="translate(60.1899 0.689941)"/>
</clipPath>
<clipPath id="clip10_1_459">
<rect width="18.06" height="16" fill="white" transform="translate(80.25 0.689941)"/>
</clipPath>
</defs>
</svg>
