<svg width="20" height="20" viewBox="0 0 20 20" fill="none" xmlns="http://www.w3.org/2000/svg">
<path d="M13.5903 3.65328C13.0978 3.65328 12.8514 3.65328 12.6271 3.57004C12.5959 3.55848 12.5653 3.54576 12.535 3.5319C12.3175 3.43213 12.1434 3.25799 11.7951 2.90973C10.9935 2.10814 10.5928 1.70735 10.0996 1.67039C10.0334 1.66543 9.96669 1.66543 9.90044 1.67039C9.40727 1.70735 9.00644 2.10814 8.2049 2.90972C7.85663 3.25799 7.68249 3.43213 7.46499 3.5319C7.43479 3.54576 7.40407 3.55848 7.37291 3.57004C7.14856 3.65328 6.9023 3.65328 6.40978 3.65328H6.31893C5.06234 3.65328 4.43405 3.65328 4.04368 4.04366C3.6533 4.43403 3.6533 5.06232 3.6533 6.31891V6.40976C3.6533 6.90228 3.6533 7.14854 3.57006 7.37289C3.5585 7.40405 3.54578 7.43477 3.53192 7.46498C3.43215 7.68248 3.25801 7.85661 2.90974 8.20488C2.10816 9.00642 1.70737 9.40725 1.67041 9.90042C1.66545 9.96667 1.66545 10.0333 1.67041 10.0996C1.70737 10.5928 2.10816 10.9935 2.90974 11.7951C3.25801 12.1434 3.43215 12.3175 3.53192 12.535C3.54578 12.5653 3.5585 12.5959 3.57006 12.6271C3.6533 12.8514 3.6533 13.0978 3.6533 13.5903V13.6811C3.6533 14.9377 3.6533 15.566 4.04368 15.9563C4.43405 16.3468 5.06234 16.3468 6.31893 16.3468H6.40978C6.9023 16.3468 7.14856 16.3468 7.37291 16.43C7.40407 16.4415 7.43479 16.4543 7.46499 16.4681C7.68249 16.5679 7.85663 16.742 8.2049 17.0903C9.00644 17.8918 9.40727 18.2927 9.90044 18.3296C9.96669 18.3346 10.0333 18.3346 10.0996 18.3296C10.5928 18.2927 10.9935 17.8918 11.7951 17.0903C12.1434 16.742 12.3175 16.5679 12.535 16.4681C12.5653 16.4543 12.5959 16.4415 12.6271 16.43C12.8514 16.3468 13.0978 16.3468 13.5903 16.3468H13.6811C14.9377 16.3468 15.566 16.3468 15.9564 15.9563C16.3468 15.566 16.3468 14.9377 16.3468 13.6811V13.5903C16.3468 13.0978 16.3468 12.8514 16.43 12.6271C16.4415 12.5959 16.4543 12.5653 16.4681 12.535C16.5679 12.3175 16.742 12.1434 17.0903 11.7951C17.8919 10.9935 18.2927 10.5928 18.3296 10.0996C18.3346 10.0333 18.3346 9.96667 18.3296 9.90042C18.2927 9.40725 17.8919 9.00642 17.0903 8.20488C16.742 7.85661 16.5679 7.68248 16.4681 7.46498C16.4543 7.43477 16.4415 7.40405 16.43 7.37289C16.3468 7.14854 16.3468 6.90228 16.3468 6.40976V6.31891C16.3468 5.06232 16.3468 4.43403 15.9564 4.04366C15.566 3.65328 14.9377 3.65328 13.6811 3.65328H13.5903Z" stroke="#141B34" stroke-width="1.5"/>
<path d="M12.9166 10C12.9166 11.6108 11.6108 12.9167 9.99998 12.9167C8.38915 12.9167 7.08331 11.6108 7.08331 10C7.08331 8.38917 8.38915 7.08333 9.99998 7.08333C11.6108 7.08333 12.9166 8.38917 12.9166 10Z" stroke="#141B34" stroke-width="1.5"/>
</svg>
