<svg width="20" height="20" viewBox="0 0 20 20" fill="none" xmlns="http://www.w3.org/2000/svg">
<path d="M13.5901 3.65327C13.0976 3.65327 12.8513 3.65327 12.6269 3.57003C12.5958 3.55846 12.5651 3.54575 12.5348 3.53189C12.3173 3.43211 12.1433 3.25798 11.7949 2.90971C10.9933 2.10813 10.5926 1.70734 10.0994 1.67038C10.0332 1.66541 9.9665 1.66541 9.90025 1.67038C9.40709 1.70734 9.00625 2.10813 8.20471 2.90971C7.85645 3.25798 7.68231 3.43211 7.46481 3.53189C7.4346 3.54575 7.40389 3.55846 7.37273 3.57003C7.14838 3.65327 6.90211 3.65327 6.4096 3.65327H6.31875C5.06215 3.65327 4.43386 3.65327 4.0435 4.04365C3.65312 4.43401 3.65312 5.06231 3.65312 6.3189V6.40975C3.65312 6.90226 3.65312 7.14853 3.56988 7.37288C3.55831 7.40404 3.5456 7.43476 3.53174 7.46496C3.43196 7.68246 3.25783 7.8566 2.90955 8.20486C2.10798 9.00641 1.70719 9.40724 1.67023 9.90041C1.66526 9.96666 1.66526 10.0333 1.67023 10.0996C1.70719 10.5927 2.10798 10.9935 2.90955 11.7951C3.25783 12.1434 3.43196 12.3175 3.53174 12.535C3.5456 12.5652 3.55831 12.5959 3.56988 12.6271C3.65312 12.8514 3.65312 13.0977 3.65312 13.5902V13.6811C3.65312 14.9377 3.65312 15.566 4.0435 15.9563C4.43386 16.3467 5.06215 16.3467 6.31875 16.3467H6.4096C6.90211 16.3467 7.14838 16.3467 7.37273 16.43C7.40389 16.4415 7.4346 16.4542 7.46481 16.4681C7.68231 16.5679 7.85645 16.742 8.20471 17.0902C9.00625 17.8918 9.40709 18.2927 9.90025 18.3296C9.9665 18.3346 10.0331 18.3346 10.0994 18.3296C10.5926 18.2927 10.9933 17.8918 11.7949 17.0902C12.1433 16.742 12.3173 16.5679 12.5348 16.4681C12.5651 16.4542 12.5958 16.4415 12.6269 16.43C12.8513 16.3467 13.0976 16.3467 13.5901 16.3467H13.6809C14.9375 16.3467 15.5658 16.3467 15.9562 15.9563C16.3466 15.566 16.3466 14.9377 16.3466 13.6811V13.5902C16.3466 13.0977 16.3466 12.8514 16.4298 12.6271C16.4413 12.5959 16.4541 12.5652 16.4679 12.535C16.5678 12.3175 16.7418 12.1434 17.0901 11.7951C17.8917 10.9935 18.2925 10.5927 18.3294 10.0996C18.3344 10.0332 18.3344 9.96666 18.3294 9.90041C18.2925 9.40724 17.8917 9.00641 17.0901 8.20486C16.7418 7.8566 16.5678 7.68246 16.4679 7.46496C16.4541 7.43476 16.4413 7.40404 16.4298 7.37288C16.3466 7.14853 16.3466 6.90226 16.3466 6.40975V6.3189C16.3466 5.06231 16.3466 4.43401 15.9562 4.04365C15.5658 3.65327 14.9375 3.65327 13.6809 3.65327H13.5901Z" stroke="#274760" stroke-width="1.5"/>
<path d="M12.9168 10C12.9168 11.6108 11.611 12.9167 10.0002 12.9167C8.38933 12.9167 7.0835 11.6108 7.0835 10C7.0835 8.38918 8.38933 7.08334 10.0002 7.08334C11.611 7.08334 12.9168 8.38918 12.9168 10Z" stroke="#274760" stroke-width="1.5"/>
</svg>
