<svg width="44" height="20" viewBox="0 0 44 20" fill="none" xmlns="http://www.w3.org/2000/svg">
<g clip-path="url(#clip0_2112_1256)">
<path d="M11.4397 2.87015L12.9062 5.8274C13.1062 6.23906 13.6394 6.63392 14.0894 6.70953L16.7474 7.15479C18.4473 7.44044 18.8473 8.68384 17.6224 9.91042L15.5559 11.9939C15.2059 12.3468 15.0144 13.0273 15.1226 13.5146L15.7143 16.0938C16.1809 18.1353 15.1059 18.925 13.3145 17.858L10.8231 16.371C10.3732 16.1022 9.6316 16.1022 9.17327 16.371L6.68191 17.858C4.89877 18.925 3.81556 18.1268 4.28218 16.0938L4.87378 13.5146C4.98209 13.0273 4.79045 12.3468 4.44049 11.9939L2.37405 9.91042C1.15752 8.68384 1.54914 7.44044 3.24895 7.15479L5.90699 6.70953C6.34861 6.63392 6.88189 6.23906 7.08186 5.8274L8.54835 2.87015C9.34827 1.26551 10.6481 1.26551 11.4397 2.87015Z" stroke="#274760" stroke-width="1.5" stroke-linecap="round" stroke-linejoin="round"/>
<rect width="20" height="20" transform="translate(24)" fill="white"/>
<path d="M35.4397 2.87015L36.9062 5.8274C37.1062 6.23906 37.6394 6.63392 38.0894 6.70953L40.7474 7.15479C42.4473 7.44044 42.8473 8.68384 41.6224 9.91042L39.5559 11.9939C39.2059 12.3468 39.0144 13.0273 39.1226 13.5146L39.7143 16.0938C40.1809 18.1353 39.1059 18.925 37.3145 17.858L34.8231 16.371C34.3732 16.1022 33.6316 16.1022 33.1733 16.371L30.6819 17.858C28.8988 18.925 27.8156 18.1268 28.2822 16.0938L28.8738 13.5146C28.9821 13.0273 28.7905 12.3468 28.4405 11.9939L26.3741 9.91042C25.1575 8.68384 25.5491 7.44044 27.249 7.15479L29.907 6.70953C30.3486 6.63392 30.8819 6.23906 31.0819 5.8274L32.5484 2.87015C33.3483 1.26551 34.6481 1.26551 35.4397 2.87015Z" fill="#274760" stroke="#274760" stroke-width="1.5" stroke-linecap="round" stroke-linejoin="round"/>
</g>
<rect x="0.5" y="0.5" width="43" height="19" rx="4.5" stroke="#9747FF" stroke-dasharray="10 5"/>
<defs>
<clipPath id="clip0_2112_1256">
<rect width="44" height="20" rx="5" fill="white"/>
</clipPath>
</defs>
</svg>
