<svg width="20" height="21" viewBox="0 0 20 21" fill="none" xmlns="http://www.w3.org/2000/svg">
<path d="M17.3117 15.1351C17.9361 15.1351 18.4327 14.7422 18.8787 14.1927C19.7916 13.068 18.2927 12.1691 17.7211 11.729C17.14 11.2815 16.4912 11.028 15.8333 10.9685M15 9.3018C16.1506 9.3018 17.0833 8.36906 17.0833 7.21847C17.0833 6.06787 16.1506 5.13513 15 5.13513" stroke="#274760" stroke-width="1.5" stroke-linecap="round"/>
<path d="M2.68847 15.1351C2.06404 15.1351 1.56739 14.7422 1.12145 14.1927C0.208572 13.068 1.70739 12.1691 2.27903 11.729C2.86014 11.2815 3.50898 11.028 4.16683 10.9685M4.5835 9.3018C3.43291 9.3018 2.50017 8.36906 2.50017 7.21847C2.50017 6.06787 3.43291 5.13513 4.5835 5.13513" stroke="#274760" stroke-width="1.5" stroke-linecap="round"/>
<path d="M6.73618 12.7278C5.88469 13.2543 3.65216 14.3294 5.01193 15.6746C5.67616 16.3318 6.41594 16.8018 7.34603 16.8018H12.6534C13.5834 16.8018 14.3232 16.3318 14.9874 15.6746C16.3472 14.3294 14.1147 13.2543 13.2632 12.7278C11.2664 11.4931 8.73286 11.4931 6.73618 12.7278Z" stroke="#274760" stroke-width="1.5" stroke-linecap="round" stroke-linejoin="round"/>
<path d="M12.9164 6.38514C12.9164 7.99598 11.6105 9.30181 9.99969 9.30181C8.38886 9.30181 7.08301 7.99598 7.08301 6.38514C7.08301 4.77431 8.38886 3.46848 9.99969 3.46848C11.6105 3.46848 12.9164 4.77431 12.9164 6.38514Z" stroke="#274760" stroke-width="1.5"/>
</svg>
