<svg width="16" height="16" viewBox="0 0 16 16" fill="none" xmlns="http://www.w3.org/2000/svg">
<path d="M9.15177 2.29611L10.325 4.66191C10.485 4.99124 10.9116 5.30713 11.2716 5.36761L13.398 5.72383C14.7578 5.95235 15.0778 6.94706 14.0979 7.92833L12.4448 9.59513C12.1648 9.87739 12.0115 10.4218 12.0981 10.8117L12.5714 12.875C12.9447 14.5082 12.0848 15.14 10.6516 14.2864L8.65851 13.0968C8.29857 12.8817 7.70531 12.8817 7.33864 13.0968L5.34555 14.2864C3.91904 15.14 3.05247 14.5015 3.42577 12.875L3.89905 10.8117C3.9857 10.4218 3.83239 9.87739 3.55241 9.59513L1.89927 7.92833C0.92604 6.94706 1.23934 5.95235 2.59919 5.72383L4.72562 5.36761C5.07891 5.30713 5.50553 4.99124 5.66551 4.66191L6.83871 2.29611C7.47864 1.0124 8.51851 1.0124 9.15177 2.29611Z" stroke="#274760" stroke-width="1.5" stroke-linecap="round" stroke-linejoin="round"/>
</svg>
